<svg width="195" height="198" viewBox="0 0 195 198" fill="none" xmlns="http://www.w3.org/2000/svg">
<rect width="195" height="198" fill="#E5E5E5"/>
<g id="Admin Dashboard">
<path d="M-1180 -547C-1180 -548.105 -1179.1 -549 -1178 -549H412C413.105 -549 414 -548.105 414 -547V2041C414 2042.1 413.105 2043 412 2043H-1178C-1179.1 2043 -1180 2042.1 -1180 2041V-547Z" fill="#D3D3D3"/>
<g id="Admin Dashboard_2" clip-path="url(#clip0_2082_6113)">
<rect width="1438" height="2218" transform="translate(-1126 -472)" fill="#F5F6FA"/>
<rect id="Rectangle 5211" x="-90" y="-98" width="364" height="391" rx="10" fill="white"/>
<path id="Ellipse 622" d="M194.069 126.62C188.935 144.293 178.976 160.184 165.311 172.511C151.646 184.838 134.815 193.111 116.709 196.403C98.602 199.695 79.9362 197.875 62.8068 191.147C45.6773 184.419 30.7623 173.049 19.7361 158.315C8.70993 143.58 2.00909 126.064 0.385854 107.732C-1.23739 89.4005 2.28123 70.9792 10.5467 54.5364C18.8122 38.0935 31.4973 24.2801 47.1779 14.6467C62.8586 5.01338 80.9141 -0.0584886 99.3174 0.000508715L99 99L194.069 126.62Z" fill="#6418C3"/>
<path id="Ellipse 623" d="M99.9577 0.279118C124.524 0.448041 148.15 9.74475 166.243 26.3623C184.337 42.9799 195.606 65.7312 197.86 90.1944L99.277 99.2768L99.9577 0.279118Z" fill="#F4BE37"/>
<g id="Ellipse 624" filter="url(#filter0_d_2082_6113)">
<path d="M200.785 40.7245C210.497 57.4327 215.893 76.2967 216.488 95.613C217.082 114.929 212.856 134.09 204.191 151.363L100.192 99.1925L200.785 40.7245Z" fill="#39B29A"/>
</g>
<path id="27" d="M169.632 100.688V102H162.96V100.872L166.2 97.3379C166.556 96.9368 166.836 96.5905 167.041 96.2988C167.246 96.0072 167.39 95.7451 167.472 95.5127C167.559 95.2757 167.602 95.0456 167.602 94.8223C167.602 94.5078 167.543 94.2321 167.424 93.9951C167.31 93.7536 167.142 93.5645 166.918 93.4277C166.695 93.2865 166.424 93.2158 166.105 93.2158C165.736 93.2158 165.426 93.2956 165.175 93.4551C164.924 93.6146 164.735 93.8356 164.608 94.1182C164.48 94.3962 164.416 94.7152 164.416 95.0752H162.769C162.769 94.4964 162.901 93.9678 163.165 93.4893C163.43 93.0062 163.812 92.6234 164.314 92.3408C164.815 92.0537 165.419 91.9102 166.125 91.9102C166.791 91.9102 167.356 92.0218 167.821 92.2451C168.285 92.4684 168.639 92.7852 168.88 93.1953C169.126 93.6055 169.249 94.0908 169.249 94.6514C169.249 94.9613 169.199 95.2689 169.099 95.5742C168.999 95.8796 168.855 96.1849 168.668 96.4902C168.486 96.791 168.269 97.0941 168.019 97.3994C167.768 97.7002 167.492 98.0055 167.192 98.3154L165.038 100.688H169.632ZM177.528 92.0469V92.9492L173.549 102H171.813L175.784 93.3594H170.63V92.0469H177.528Z" fill="white"/>
</g>
<path d="M-1178 -548H412V-550H-1178V-548ZM413 -547V2041H415V-547H413ZM412 2042H-1178V2044H412V2042ZM-1179 2041V-547H-1181V2041H-1179ZM-1178 2042C-1178.55 2042 -1179 2041.55 -1179 2041H-1181C-1181 2042.66 -1179.66 2044 -1178 2044V2042ZM413 2041C413 2041.55 412.552 2042 412 2042V2044C413.657 2044 415 2042.66 415 2041H413ZM412 -548C412.552 -548 413 -547.552 413 -547H415C415 -548.657 413.657 -550 412 -550V-548ZM-1178 -550C-1179.66 -550 -1181 -548.657 -1181 -547H-1179C-1179 -547.552 -1178.55 -548 -1178 -548V-550Z" fill="black" fill-opacity="0.1"/>
</g>
<defs>
<filter id="filter0_d_2082_6113" x="96.1923" y="40.7246" width="124.35" height="118.639" filterUnits="userSpaceOnUse" color-interpolation-filters="sRGB">
<feFlood flood-opacity="0" result="BackgroundImageFix"/>
<feColorMatrix in="SourceAlpha" type="matrix" values="0 0 0 0 0 0 0 0 0 0 0 0 0 0 0 0 0 0 127 0" result="hardAlpha"/>
<feOffset dy="4"/>
<feGaussianBlur stdDeviation="2"/>
<feComposite in2="hardAlpha" operator="out"/>
<feColorMatrix type="matrix" values="0 0 0 0 0 0 0 0 0 0 0 0 0 0 0 0 0 0 0.25 0"/>
<feBlend mode="normal" in2="BackgroundImageFix" result="effect1_dropShadow_2082_6113"/>
<feBlend mode="normal" in="SourceGraphic" in2="effect1_dropShadow_2082_6113" result="shape"/>
</filter>
<clipPath id="clip0_2082_6113">
<rect width="1438" height="2218" fill="white" transform="translate(-1126 -472)"/>
</clipPath>
</defs>
</svg>
