<svg width="29" height="29" viewBox="0 0 29 29" fill="none" xmlns="http://www.w3.org/2000/svg">
<circle cx="14.5" cy="14.5" r="14.5" fill="#0FA9FF"/>
<path d="M11.1304 8.56494C10.5061 8.56494 10 9.07364 10 9.69538V14.2171V16.478V19.8693C10 20.491 10.5061 20.9997 11.1304 20.9997H19.0435C19.668 20.9997 20.1739 20.491 20.1739 19.8693V16.478V14.2171V11.9562L16.7826 8.56494H11.1304Z" fill="#CECECE"/>
<path d="M11.1304 8C10.5061 8 10 8.5087 10 9.13043V13.6522V15.913V19.3043C10 19.9261 10.5061 20.4348 11.1304 20.4348H19.0435C19.668 20.4348 20.1739 19.9261 20.1739 19.3043V15.913V13.6522V11.3913L16.7826 8H11.1304Z" fill="white"/>
<path d="M20.1738 11.3913L16.7825 8V10.2609C16.7825 10.8826 17.2883 11.3913 17.9129 11.3913H20.1738Z" fill="#CECECE"/>
<path d="M19.1067 13.6522H18.9428C18.892 13.7087 18.6031 14.1044 18.4782 14.2174C18.4443 14.274 18.3934 14.3305 18.3646 14.3305C17.9447 14.8392 17.0516 15.687 16.5158 16.1392C16.4457 16.1957 16.3779 16.2522 16.3654 16.2522C16.3281 16.3087 15.9709 16.5348 15.8104 16.6478C15.2989 16.987 14.6986 17.2696 14.2323 17.3826C13.3121 17.6087 12.5941 17.5522 11.6619 17.1C11.3802 16.987 10.9789 16.7609 10.7588 16.5913C10.5429 16.4218 10.5657 16.4218 10.566 16.7044V16.987L10.7117 17.0435C10.8987 17.1566 11.3021 17.3826 11.5652 17.4957C11.7656 17.6087 11.828 17.6653 11.7159 17.6653C11.6126 17.6087 11.0262 17.6087 10.8009 17.6653H10.5748C10.5696 17.6653 10.5654 17.7783 10.5654 17.8914V18.1175H10.6407C10.965 18.0044 11.6608 18.0044 11.9847 18.0609C12.3661 18.1174 12.6345 18.1739 12.9568 18.3435C13.5719 18.6261 14.082 19.1913 14.3041 19.7565L14.3493 19.8696H14.598H14.8467L14.8331 19.8131C14.7534 19.474 14.5296 19.0783 14.2527 18.7957C14.0707 18.5696 13.7492 18.3435 13.6226 18.2305H13.5798C13.5592 18.1739 13.3444 18.0609 13.2526 18.0609C13.2004 18.0044 13.1578 18.0044 13.1578 18.0044C13.1578 17.9478 13.1974 17.9478 13.2457 18.0044C13.3664 18.0044 13.8524 17.9479 14.0724 17.8914C14.6817 17.7783 15.2582 17.5522 15.8409 17.2131C16.05 17.1 16.5248 16.7044 16.7147 16.5913C16.856 16.4218 16.9013 16.4218 16.8436 16.4783C16.8233 16.5348 16.7843 16.5913 16.756 16.6478C16.7283 16.7044 16.6797 16.7609 16.6486 16.8174C16.2089 17.4957 15.9268 18.3435 15.8505 19.3044C15.8398 19.474 15.8307 19.6435 15.8307 19.7V19.8696H17.1488H18.4669L18.424 19.8131C18.1866 19.474 17.8921 18.7392 17.7932 18.2305C17.7118 17.8348 17.6875 17.2131 17.7384 16.8739C17.8864 15.9696 18.3912 15.1783 19.2582 14.6696C19.3475 14.613 19.4628 14.5566 19.5143 14.5L19.6087 14.4435V14.2739C19.6087 14.1609 19.6019 14.0478 19.5934 14.0478C19.3877 14.1609 18.9298 14.4435 18.7196 14.5566C18.6071 14.6696 18.6003 14.6696 18.706 14.5566C18.8575 14.387 19.1186 14.1044 19.3961 13.7652L19.5256 13.6522H19.2424H19.1067Z" fill="#ECF0F1"/>
</svg>
