<svg width="28" height="28" viewBox="0 0 28 28" fill="none" xmlns="http://www.w3.org/2000/svg">
<path d="M6.7601 14.6801L14.6797 6.76053C16.3199 5.12032 18.9792 5.12032 20.6193 6.76053C22.2596 8.40073 22.2596 11.06 20.6193 12.7002L11.2149 22.1047C10.3948 22.9248 9.06513 22.9248 8.24503 22.1047C7.42492 21.2846 7.42492 19.955 8.24503 19.1349L16.6596 10.7203C16.933 10.447 16.933 10.0037 16.6596 9.73038C16.3863 9.457 15.9431 9.457 15.6696 9.73038L7.25507 18.1449C5.88824 19.5118 5.88824 21.7278 7.25507 23.0946C8.62192 24.4615 10.838 24.4615 12.2048 23.0946L21.6094 13.6902C23.7964 11.5032 23.7964 7.95752 21.6094 5.77058C19.4225 3.58364 15.8767 3.58364 13.6898 5.77058L5.77015 13.6902C5.49678 13.9635 5.49678 14.4068 5.77015 14.6801C6.04353 14.9535 6.48674 14.9535 6.7601 14.6801Z" fill="#212121"/>
</svg>
