<svg width="29" height="29" viewBox="0 0 29 29" fill="none" xmlns="http://www.w3.org/2000/svg">
<circle cx="14.5" cy="14.5" r="14.5" fill="#6418C3"/>
<path d="M10.1304 8.56494C9.5061 8.56494 9 9.07364 9 9.69538V14.2171V16.478V19.8693C9 20.491 9.5061 20.9997 10.1304 20.9997H18.0435C18.668 20.9997 19.1739 20.491 19.1739 19.8693V16.478V14.2171V11.9562L15.7826 8.56494H10.1304Z" fill="#CECECE"/>
<path d="M10.1304 8C9.5061 8 9 8.5087 9 9.13043V13.6522V15.913V19.3043C9 19.9261 9.5061 20.4348 10.1304 20.4348H18.0435C18.668 20.4348 19.1739 19.9261 19.1739 19.3043V15.913V13.6522V11.3913L15.7826 8H10.1304Z" fill="white"/>
<path d="M19.1738 11.3913L15.7825 8V10.2609C15.7825 10.8826 16.2883 11.3913 16.9129 11.3913H19.1738Z" fill="#CECECE"/>
<path d="M18.1067 13.6522H17.9428C17.892 13.7087 17.6031 14.1044 17.4782 14.2174C17.4443 14.274 17.3934 14.3305 17.3646 14.3305C16.9447 14.8392 16.0516 15.687 15.5158 16.1392C15.4457 16.1957 15.3779 16.2522 15.3654 16.2522C15.3281 16.3087 14.9709 16.5348 14.8104 16.6478C14.2989 16.987 13.6986 17.2696 13.2323 17.3826C12.3121 17.6087 11.5941 17.5522 10.6619 17.1C10.3802 16.987 9.97886 16.7609 9.75882 16.5913C9.54291 16.4218 9.56569 16.4218 9.56603 16.7044V16.987L9.71174 17.0435C9.89866 17.1566 10.3021 17.3826 10.5652 17.4957C10.7656 17.6087 10.828 17.6653 10.7159 17.6653C10.6126 17.6087 10.0262 17.6087 9.80093 17.6653H9.57484C9.56964 17.6653 9.56541 17.7783 9.56541 17.8914V18.1175H9.64075C9.96496 18.0044 10.6608 18.0044 10.9847 18.0609C11.3661 18.1174 11.6345 18.1739 11.9568 18.3435C12.5719 18.6261 13.082 19.1913 13.3041 19.7565L13.3493 19.8696H13.598H13.8467L13.8331 19.8131C13.7534 19.474 13.5296 19.0783 13.2527 18.7957C13.0707 18.5696 12.7492 18.3435 12.6226 18.2305H12.5798C12.5592 18.1739 12.3444 18.0609 12.2526 18.0609C12.2004 18.0044 12.1578 18.0044 12.1578 18.0044C12.1578 17.9478 12.1974 17.9478 12.2457 18.0044C12.3664 18.0044 12.8524 17.9479 13.0724 17.8914C13.6817 17.7783 14.2582 17.5522 14.8409 17.2131C15.05 17.1 15.5248 16.7044 15.7147 16.5913C15.856 16.4218 15.9013 16.4218 15.8436 16.4783C15.8233 16.5348 15.7843 16.5913 15.756 16.6478C15.7283 16.7044 15.6797 16.7609 15.6486 16.8174C15.2089 17.4957 14.9268 18.3435 14.8505 19.3044C14.8398 19.474 14.8307 19.6435 14.8307 19.7V19.8696H16.1488H17.4669L17.424 19.8131C17.1866 19.474 16.8921 18.7392 16.7932 18.2305C16.7118 17.8348 16.6875 17.2131 16.7384 16.8739C16.8864 15.9696 17.3912 15.1783 18.2582 14.6696C18.3475 14.613 18.4628 14.5566 18.5143 14.5L18.6087 14.4435V14.2739C18.6087 14.1609 18.6019 14.0478 18.5934 14.0478C18.3877 14.1609 17.9298 14.4435 17.7196 14.5566C17.6071 14.6696 17.6003 14.6696 17.706 14.5566C17.8575 14.387 18.1186 14.1044 18.3961 13.7652L18.5256 13.6522H18.2424H18.1067Z" fill="#ECF0F1"/>
</svg>
