<svg width="29" height="29" viewBox="0 0 29 29" fill="none" xmlns="http://www.w3.org/2000/svg">
<circle cx="14.5" cy="14.5" r="14.5" fill="#FFAB2D"/>
<path d="M11.0027 14.5213L11 14.8856C11.0027 16.6425 12.232 18.1155 13.8952 18.5333C13.93 18.536 13.9648 18.5467 13.997 18.5574C14.155 18.611 14.2675 18.7422 14.321 18.9003V20.4724C14.321 20.7643 14.5594 21 14.8567 21H14.8593C15.1566 21 15.3923 20.7643 15.3923 20.4724V18.8976C15.4459 18.7396 15.5557 18.611 15.7137 18.5574C15.7458 18.5467 15.7807 18.536 15.8182 18.5333C17.4814 18.1155 18.7133 16.6425 18.7133 14.8856V14.5213C18.7133 14.2428 18.475 14.0151 18.1911 14.0151C17.9072 14.0151 17.6688 14.2401 17.6688 14.5213V14.8856C17.6688 15.6489 17.3608 16.3345 16.8493 16.8353C16.3351 17.3335 15.636 17.6442 14.854 17.6442C14.0719 17.6442 13.3783 17.3362 12.8667 16.8353C12.3552 16.3345 12.0445 15.6462 12.0445 14.8856V14.5213C12.0445 14.2428 11.8088 14.0151 11.5223 14.0151C11.2384 14.0151 11.0027 14.2428 11.0027 14.5213Z" fill="white"/>
<path d="M12.7942 11.0274V14.8787C12.7942 15.9983 13.7235 16.9062 14.8698 16.9062C16.0161 16.9062 16.9455 15.9983 16.9455 14.8787V11.0274C16.9455 9.90792 16.0161 9 14.8698 9C13.7235 9 12.7942 9.90792 12.7942 11.0274Z" fill="white"/>
</svg>
