<svg width="24" height="24" viewBox="0 0 24 24" fill="none" xmlns="http://www.w3.org/2000/svg">
<g clip-path="url(#clip0_2764_13898)">
<path d="M12 0C5.4 0 0 5.4 0 12C0 18.6 5.4 24 12 24C18.6 24 24 18.6 24 12C24 5.4 18.6 0 12 0ZM12 22C6.5 22 2 17.5 2 12C2 6.5 6.5 2 12 2C17.5 2 22 6.5 22 12C22 17.5 17.5 22 12 22Z" fill="black"/>
<path d="M8.5 11C9.32843 11 10 10.3284 10 9.5C10 8.67157 9.32843 8 8.5 8C7.67157 8 7 8.67157 7 9.5C7 10.3284 7.67157 11 8.5 11Z" fill="black"/>
<path d="M15.5 11C16.3284 11 17 10.3284 17 9.5C17 8.67157 16.3284 8 15.5 8C14.6716 8 14 8.67157 14 9.5C14 10.3284 14.6716 11 15.5 11Z" fill="black"/>
<path d="M12 19C14.8 19 17.2 17.4 18.3 15H5.70001C6.80001 17.4 9.20001 19 12 19ZM16.4 16C15.3 17.2 13.7 18 12 18C10.3 18 8.70001 17.2 7.60001 16H16.4Z" fill="black"/>
</g>
<defs>
<clipPath id="clip0_2764_13898">
<rect width="24" height="24" fill="white"/>
</clipPath>
</defs>
</svg>
