<svg width="11" height="11" viewBox="0 0 11 11" fill="none" xmlns="http://www.w3.org/2000/svg">
<path fill-rule="evenodd" clip-rule="evenodd" d="M3.45993 6.02561C3.49346 6.03068 3.50242 6.03068 3.53478 6.04081C3.58389 6.05562 3.6295 6.08018 3.66887 6.11254C3.67901 6.12033 3.68798 6.12969 3.69733 6.13827L4.80013 7.24068C4.80871 7.25003 4.81768 7.259 4.82586 7.26913C4.91435 7.37711 4.93891 7.5346 4.88434 7.66558C4.86991 7.70106 4.85003 7.73419 4.82586 7.76382C4.81768 7.77356 4.80871 7.78253 4.80013 7.79188L2.15364 10.438C2.14546 10.4458 2.13727 10.454 2.1283 10.4614C2.1018 10.4836 2.07256 10.5023 2.04098 10.5167C2.01292 10.5296 2.00512 10.5308 1.97588 10.5397L0.48755 10.9257C0.475075 10.9284 0.462601 10.9315 0.449737 10.9334C0.310181 10.9553 0.16127 10.8952 0.0762891 10.7802C0.0150873 10.6976 -0.0114205 10.59 0.00456212 10.4883C0.00651122 10.4758 0.00962978 10.4633 0.0123585 10.4505L0.398281 8.96213C0.401789 8.95121 0.404518 8.93991 0.408416 8.92899C0.420111 8.89664 0.436093 8.86545 0.455584 8.83738C0.473126 8.81204 0.479364 8.80698 0.500024 8.78437L3.14613 6.13827C3.17146 6.11527 3.17692 6.10864 3.20538 6.08954C3.24748 6.06108 3.29582 6.0412 3.34571 6.03145C3.37924 6.02483 3.38781 6.02561 3.42173 6.02405C3.43459 6.02444 3.44707 6.02522 3.45993 6.02561Z" fill="#F2F2F2"/>
<path fill-rule="evenodd" clip-rule="evenodd" d="M4.24723 6.68726L4.79883 7.23846C4.8074 7.24782 4.81637 7.25678 4.82455 7.26692C4.91304 7.3749 4.9376 7.53239 4.88303 7.66337C4.8686 7.69884 4.84872 7.73197 4.82455 7.7616C4.81637 7.77135 4.8074 7.78031 4.79883 7.78967L2.15233 10.4358C2.14415 10.4436 2.13596 10.4518 2.127 10.4592C2.10049 10.4814 2.07125 10.5001 2.03968 10.5145C2.01161 10.5274 2.00381 10.5285 1.97458 10.5375L0.486241 10.9234C0.473767 10.9262 0.461292 10.9293 0.448428 10.9312C0.327584 10.9503 0.200113 10.9078 0.112793 10.8217L4.24723 6.68726Z" fill="#D9D9D9"/>
<path fill-rule="evenodd" clip-rule="evenodd" d="M1.77385 4.75503C2.10247 4.42797 2.53283 4.19057 2.99204 4.08415C3.46762 3.97422 3.97322 4.00112 4.43749 4.15432C4.47258 4.16601 4.50766 4.1781 4.54275 4.19135L7.10348 1.63062C6.98731 1.39361 6.95145 1.11099 7.01343 0.850588C7.08437 0.553935 7.28279 0.288857 7.55255 0.139556C7.71199 0.0514563 7.89403 0.00389822 8.07491 0.000389839C8.0831 1.81978e-08 8.09167 0 8.09986 0C8.39729 0.00155928 8.69005 0.120844 8.9064 0.323161C8.91497 0.331347 8.92355 0.339534 8.93212 0.34811C9.48489 0.899706 10.0365 1.45247 10.5885 2.00446C10.8228 2.23952 10.9549 2.5732 10.9374 2.90338C10.9233 3.16378 10.8173 3.41795 10.6372 3.60896C10.6298 3.61675 10.6224 3.62416 10.615 3.63157C10.615 3.63157 10.599 3.64755 10.5865 3.65925C10.3522 3.87754 10.0213 3.98397 9.70085 3.94966C9.5648 3.93485 9.43148 3.89587 9.3083 3.83583L6.74757 6.39656C6.88635 6.76689 6.94755 7.1801 6.91207 7.58474C6.86296 8.14803 6.62673 8.693 6.23768 9.10933C6.2256 9.12258 6.21313 9.13583 6.20026 9.1487L6.18779 9.16156L6.19597 9.15221L6.16986 9.1791L6.1414 9.20366C6.13087 9.21068 6.12113 9.21848 6.1106 9.2251C5.99444 9.29839 5.83929 9.30462 5.71688 9.23836C5.69466 9.22627 5.674 9.21224 5.65451 9.19625C5.64477 9.18846 5.63619 9.17949 5.62684 9.17131L1.76761 5.31208C1.75943 5.30312 1.75085 5.29454 1.74305 5.2848C1.6647 5.19007 1.63507 5.05675 1.66626 4.93747C1.68224 4.87782 1.71187 4.82247 1.75319 4.77647C1.76138 4.76711 1.77034 4.75893 1.77892 4.74996L1.77385 4.75503L1.77073 4.75815L1.77346 4.75503H1.77385Z" fill="#6418C3"/>
<path fill-rule="evenodd" clip-rule="evenodd" d="M9.76146 1.17566C10.0371 1.45126 10.3127 1.72726 10.5883 2.00286C10.8225 2.23792 10.9547 2.57161 10.9372 2.90178C10.9231 3.16218 10.8171 3.41635 10.637 3.60736C10.6296 3.61516 10.6222 3.62256 10.6148 3.62997C10.6148 3.62997 10.5988 3.64595 10.5863 3.65765C10.352 3.87595 10.0211 3.98237 9.70065 3.94806C9.5646 3.93325 9.43128 3.89427 9.3081 3.83424L6.74737 6.39497C6.88614 6.7653 6.94734 7.17851 6.91187 7.58314C6.86275 8.14643 6.62652 8.6914 6.23748 9.10773C6.2254 9.12098 6.21292 9.13423 6.20006 9.1471L6.18758 9.15996L6.19577 9.15061L6.16965 9.17751L6.1412 9.20206C6.13067 9.20908 6.12093 9.21688 6.1104 9.2235C5.99423 9.29679 5.83908 9.30303 5.71668 9.23676C5.69446 9.22467 5.6738 9.21064 5.65431 9.19466C5.64456 9.18686 5.63599 9.17789 5.62663 9.16971L3.69702 7.2401L9.76146 1.17566Z" fill="#6418C3"/>
</svg>
