<svg width="18" height="24" viewBox="0 0 18 24" fill="none" xmlns="http://www.w3.org/2000/svg">
<g clip-path="url(#clip0_2764_13904)">
<path fill-rule="evenodd" clip-rule="evenodd" d="M17.5909 12.8H16.7727C16.5465 12.8 16.3636 12.9792 16.3636 13.2C16.3636 16.758 13.7635 19.7456 10.1782 20.3084C9.97527 20.3324 9.81818 20.5008 9.81818 20.7056V23.6C9.81818 23.8208 10.001 24 10.2273 24C10.4535 24 10.6364 23.8208 10.6364 23.6V21.0404C14.3157 20.3144 16.9814 17.266 17.1642 13.6H17.5909C17.8171 13.6 18 13.4208 18 13.2C18 12.9792 17.8171 12.8 17.5909 12.8ZM7.82877 20.3096C4.24023 19.7492 1.63636 16.76 1.63636 13.2C1.63636 12.9792 1.4535 12.8 1.22727 12.8H0.409091C0.182864 12.8 0 12.9792 0 13.2C0 13.4208 0.182864 13.6 0.409091 13.6H0.835773C1.01864 17.266 3.68427 20.3144 7.36364 21.0404V23.6C7.36364 23.8208 7.5465 24 7.77273 24C7.99895 24 8.18182 23.8208 8.18182 23.6V20.7056C8.18182 20.504 8.02759 20.3368 7.82877 20.3096ZM9 19.2C5.84182 19.2 3.27273 16.688 3.27273 13.6V13.2C3.27273 12.9792 3.45559 12.8 3.68182 12.8H12.6818C12.908 12.8 13.0909 12.9792 13.0909 13.2C13.0909 13.4208 12.908 13.6 12.6818 13.6H4.09091C4.09091 16.2468 6.29305 18.4 9 18.4C11.707 18.4 13.9091 16.2468 13.9091 13.6V11.2H11.0455C10.8192 11.2 10.6364 11.0208 10.6364 10.8C10.6364 10.5792 10.8192 10.4 11.0455 10.4H13.9091V8.8H11.0455C10.8192 8.8 10.6364 8.6208 10.6364 8.4C10.6364 8.1792 10.8192 8 11.0455 8H13.9091V6.4H11.0455C10.8192 6.4 10.6364 6.2208 10.6364 6C10.6364 5.7792 10.8192 5.6 11.0455 5.6H13.9091C13.9091 2.9532 11.707 0.8 9 0.8C6.29305 0.8 4.09091 2.9532 4.09091 5.6H5.31818C5.54441 5.6 5.72727 5.7792 5.72727 6C5.72727 6.2208 5.54441 6.4 5.31818 6.4H4.09091V8H5.31818C5.54441 8 5.72727 8.1792 5.72727 8.4C5.72727 8.6208 5.54441 8.8 5.31818 8.8H4.09091V10.4H5.31818C5.54441 10.4 5.72727 10.5792 5.72727 10.8C5.72727 11.0208 5.54441 11.2 5.31818 11.2H4.09091V11.6C4.09091 11.8208 3.90805 12 3.68182 12C3.45559 12 3.27273 11.8208 3.27273 11.6V5.6C3.27273 2.512 5.84182 0 9 0C12.1582 0 14.7273 2.512 14.7273 5.6V13.6C14.7273 16.688 12.1582 19.2 9 19.2Z" fill="black"/>
</g>
<defs>
<clipPath id="clip0_2764_13904">
<rect width="18" height="24" fill="white"/>
</clipPath>
</defs>
</svg>
