<svg width="29" height="29" viewBox="0 0 29 29" fill="none" xmlns="http://www.w3.org/2000/svg">
<circle cx="14.5" cy="14.5" r="14.5" fill="#9B51E0"/>
<path fill-rule="evenodd" clip-rule="evenodd" d="M10 20.1319V9.49309C10 9.22088 10.2209 9 10.4931 9H14.8037L18.4946 12.6909V20.1319C18.4946 20.4041 18.2738 20.625 18.0016 20.625H10.4931C10.2209 20.625 10 20.4041 10 20.1319Z" fill="white"/>
<path fill-rule="evenodd" clip-rule="evenodd" d="M14.8037 9.0001L18.4946 12.691H15.2968C15.0246 12.691 14.8037 12.4702 14.8037 12.1979V9.0001Z" fill="white"/>
<path d="M11.5703 17.5004V19.2758C11.5703 19.4447 11.5438 19.5703 11.4908 19.6526C11.4204 19.7492 11.3245 19.7976 11.2038 19.7976C11.1728 19.7976 11.1418 19.7953 11.1111 19.7905C11.0804 19.786 11.0568 19.7811 11.0404 19.776C11.0242 19.7711 11.0142 19.7676 11.011 19.766L11.0158 19.5745C11.0488 19.588 11.0946 19.5951 11.1534 19.5961C11.2222 19.5961 11.2674 19.569 11.2887 19.5147C11.31 19.4605 11.321 19.3833 11.321 19.2835V17.5004H11.5703Z" fill="#9B9B9B"/>
<path d="M13.0661 18.0084C13.0661 18.1663 13.0087 18.2935 12.8934 18.3901C12.7952 18.474 12.6515 18.5167 12.4626 18.5173H12.2117V19.281H11.9624V17.5004H12.4626C12.6515 17.5004 12.7952 17.5424 12.8934 17.6267C13.0087 17.7265 13.0661 17.8537 13.0661 18.0084ZM12.6993 18.2464C12.7716 18.1928 12.8078 18.1133 12.8078 18.0084C12.8078 17.9034 12.7716 17.8253 12.6993 17.774C12.6341 17.7278 12.5482 17.7048 12.4423 17.7048H12.2117V18.3132H12.4423C12.5491 18.3132 12.6347 18.2909 12.6993 18.2464Z" fill="#9B9B9B"/>
<path d="M14.3941 19.0692V19.281H13.332V17.5004H14.3741V17.7097H13.5813V18.2415H14.3298V18.4508H13.5813V19.0692H14.3941Z" fill="#9B9B9B"/>
<path d="M16.2656 18.331V19.0226C16.0732 19.2151 15.8213 19.3117 15.5097 19.3126C15.2517 19.3126 15.036 19.2274 14.8619 19.0565C14.6882 18.886 14.6013 18.6639 14.6013 18.39C14.6013 18.1178 14.6875 17.8973 14.86 17.7281C15.0327 17.5589 15.2484 17.4739 15.5071 17.4739C15.7945 17.4739 16.0302 17.5731 16.214 17.7713L16.2266 17.7839L16.0564 17.9415C15.912 17.7726 15.7289 17.6884 15.5071 17.6884C15.3198 17.6884 15.1651 17.7516 15.0427 17.8779C14.9207 18.0045 14.8593 18.175 14.8593 18.39C14.8593 18.6035 14.9223 18.7737 15.0479 18.9009C15.1735 19.0285 15.3314 19.0921 15.5223 19.0921C15.7373 19.0921 15.8982 19.044 16.0047 18.9484L16.0225 18.9293V18.535H15.5423V18.331H16.2656Z" fill="#9B9B9B"/>
</svg>
