<svg width="235" height="232" viewBox="0 0 235 232" fill="none" xmlns="http://www.w3.org/2000/svg">
<path fill-rule="evenodd" clip-rule="evenodd" d="M104.665 8.46388C130.681 8.41793 160.623 -9.33937 181.114 6.72313C201.987 23.0857 189.621 57.8924 199.271 82.6247C208.125 105.317 233.95 120.338 234.94 144.683C235.97 169.998 223.591 195.964 204.56 212.646C186.258 228.689 159.92 229.959 135.666 231.703C115.329 233.166 95.6065 229.117 76.5513 221.851C58.6975 215.043 42.5391 205.161 29.4635 191.207C15.9864 176.824 3.99917 160.342 0.691857 140.894C-2.65799 121.196 7.03028 102.657 11.0775 83.0908C16.456 57.089 7.65232 23.5284 28.389 6.9929C48.6982 -9.20177 78.7092 8.50973 104.665 8.46388Z" fill="#ECF2FD"/>
</svg>
