<svg width="25" height="27" viewBox="0 0 25 27" fill="none" xmlns="http://www.w3.org/2000/svg">
<path d="M16.6672 15.3691C16.6672 17.0874 15.275 18.479 13.5578 18.479H11.4427C9.72552 18.479 8.33333 17.0874 8.33333 15.3691H0V24.2233C0 25.3738 0.932812 26.3066 2.08333 26.3066H22.9167C24.0672 26.3066 25 25.3738 25 24.2233V15.3691H16.6672Z" fill="#949495"/>
<path d="M12.4563 13.8021L16.4188 9.92083C16.8079 9.53906 16.6823 9.22969 16.136 9.22969H13.7584V1.30208C13.7584 0.582813 13.1756 0 12.4563 0C11.737 0 11.1542 0.582813 11.1542 1.30208V9.22969H8.77661C8.22974 9.22969 8.10422 9.53958 8.49432 9.92083L12.4563 13.8021Z" fill="#949495"/>
</svg>
