<svg width="80" height="74" viewBox="0 0 80 74" fill="none" xmlns="http://www.w3.org/2000/svg">
<path d="M76.6986 63.9876H42.4462C41.0959 63.9876 40 62.8887 40 61.5344V12.4697C40 11.1153 41.0959 10.0166 42.4462 10.0166H76.6986C78.0495 10.0166 79.1455 11.1153 79.1455 12.4697V61.5344C79.1456 62.8887 78.0497 63.9876 76.6986 63.9876Z" fill="#F1F5F7"/>
<path d="M52.2328 24.7354H42.4462C41.0959 24.7354 40 23.6363 40 22.282C40 20.928 41.0959 19.8291 42.4462 19.8291H52.2328C53.5831 19.8291 54.679 20.928 54.679 22.282C54.6792 23.6363 53.5832 24.7354 52.2328 24.7354Z" fill="#46B34C"/>
<path d="M52.2328 34.5485H42.4462C41.0959 34.5485 40 33.4498 40 32.0948C40 30.7418 41.0959 29.6426 42.4462 29.6426H52.2328C53.5831 29.6426 54.679 30.7418 54.679 32.0948C54.6792 33.4496 53.5832 34.5485 52.2328 34.5485Z" fill="#46B34C"/>
<path d="M52.2328 44.361H42.4462C41.0959 44.361 40 43.2618 40 41.9085C40 40.5541 41.0959 39.4551 42.4462 39.4551H52.2328C53.5831 39.4551 54.679 40.5541 54.679 41.9085C54.6792 43.2618 53.5832 44.361 52.2328 44.361Z" fill="#46B34C"/>
<path d="M52.2328 54.1752H42.4462C41.0959 54.1752 40 53.0763 40 51.7219C40 50.3676 41.0959 49.2686 42.4462 49.2686H52.2328C53.5831 49.2686 54.679 50.3676 54.679 51.7219C54.679 53.0763 53.5832 54.1752 52.2328 54.1752Z" fill="#46B34C"/>
<path d="M66.9124 24.7354H62.0191C60.6689 24.7354 59.5723 23.6363 59.5723 22.282C59.5723 20.928 60.6689 19.8291 62.0191 19.8291H66.9124C68.2625 19.8291 69.3586 20.928 69.3586 22.282C69.3586 23.6363 68.2625 24.7354 66.9124 24.7354Z" fill="#46B34C"/>
<path d="M66.9124 34.5485H62.0191C60.6689 34.5485 59.5723 33.4498 59.5723 32.0948C59.5723 30.7418 60.6689 29.6426 62.0191 29.6426H66.9124C68.2625 29.6426 69.3586 30.7418 69.3586 32.0948C69.3586 33.4496 68.2625 34.5485 66.9124 34.5485Z" fill="#46B34C"/>
<path d="M66.9124 44.361H62.0191C60.6689 44.361 59.5723 43.2618 59.5723 41.9085C59.5723 40.5541 60.6689 39.4551 62.0191 39.4551H66.9124C68.2625 39.4551 69.3586 40.5541 69.3586 41.9085C69.3586 43.2618 68.2625 44.361 66.9124 44.361Z" fill="#46B34C"/>
<path d="M66.9124 54.1752H62.0191C60.6689 54.1752 59.5723 53.0763 59.5723 51.7219C59.5723 50.3676 60.6689 49.2686 62.0191 49.2686H66.9124C68.2625 49.2686 69.3586 50.3676 69.3586 51.7219C69.3586 53.0763 68.2625 54.1752 66.9124 54.1752Z" fill="#46B34C"/>
<path d="M44.0075 0.767698C43.4491 0.301597 42.7004 0.100128 41.9961 0.247948L2.85048 7.60697C1.69089 7.82386 0.854004 8.83432 0.854004 10.0166V63.9875C0.854004 65.165 1.69089 66.1801 2.85048 66.3973L41.9961 73.7565C42.1426 73.7855 42.2944 73.8009 42.4463 73.8009C43.0138 73.8009 43.5665 73.6042 44.0075 73.2357C44.5706 72.7705 44.8923 72.0737 44.8923 71.3471V2.65737C44.8922 1.92598 44.5704 1.23396 44.0075 0.767698Z" fill="#3CA241"/>
<path d="M34.5005 45.2007L26.7633 36.3354L34.5886 26.2478C35.4204 25.1775 35.2237 23.6366 34.162 22.8032C33.1004 21.9687 31.5636 22.165 30.7279 23.2292L23.4804 32.5714L17.374 25.5758C16.4789 24.5444 14.9323 24.4513 13.9241 25.345C12.9068 26.2372 12.8036 27.7874 13.6943 28.8034L20.4226 36.5162L13.6014 45.3083C12.7693 46.3783 12.9653 47.9195 14.0267 48.7531C14.4772 49.1014 15.011 49.2683 15.5341 49.2683C16.263 49.2683 16.9829 48.9446 17.4666 48.3208L23.7058 40.2743L30.8201 48.425C31.3049 48.9838 31.98 49.2684 32.6597 49.2684C33.2326 49.2684 33.8055 49.0671 34.2708 48.6594C35.2883 47.7672 35.3905 46.2169 34.5005 45.2007Z" fill="#FCFCFC"/>
</svg>
