<svg width="644" height="268" viewBox="0 0 644 268" fill="none" xmlns="http://www.w3.org/2000/svg">
<line x1="103.5" y1="1" x2="103.5" y2="242" stroke="#EBEBEB"/>
<line x1="644" y1="242.5" x2="103" y2="242.5" stroke="#EBEBEB"/>
<path d="M157.73 261.132C159.602 261.132 160.37 260.304 160.37 258.66C160.37 257.508 159.902 257.196 159.182 256.86C159.614 256.572 160.214 256.092 160.214 255.072C160.214 253.632 159.53 252.948 157.538 252.948C156.662 252.948 155.714 253.164 155.222 253.332L155.33 254.352C155.81 254.256 156.722 254.124 157.454 254.124C158.414 254.124 158.822 254.448 158.822 255.156C158.822 255.852 158.198 256.38 157.634 256.38H156.038V257.508H157.634C158.414 257.52 158.99 257.904 158.99 258.696C158.99 259.548 158.51 259.956 157.55 259.956C156.818 259.956 155.786 259.812 155.222 259.716L155.138 260.76C155.738 260.928 156.842 261.132 157.73 261.132ZM164.505 261.132C166.401 261.132 167.493 260.136 167.493 257.124C167.493 254.004 166.425 252.948 164.505 252.948C162.597 252.948 161.505 254.016 161.505 257.124C161.505 260.148 162.609 261.132 164.505 261.132ZM164.517 259.956C163.437 259.956 162.897 259.296 162.897 257.124C162.897 254.796 163.413 254.124 164.505 254.124C165.621 254.124 166.113 254.796 166.113 257.124C166.113 259.284 165.597 259.956 164.517 259.956ZM171.219 261.132C173.115 261.132 174.207 260.136 174.207 257.124C174.207 254.004 173.139 252.948 171.219 252.948C169.311 252.948 168.219 254.016 168.219 257.124C168.219 260.148 169.323 261.132 171.219 261.132ZM171.231 259.956C170.151 259.956 169.611 259.296 169.611 257.124C169.611 254.796 170.127 254.124 171.219 254.124C172.335 254.124 172.827 254.796 172.827 257.124C172.827 259.284 172.311 259.956 171.231 259.956ZM175.522 261H176.866V257.664L178.09 257.568L179.806 261H181.378L179.266 256.908L181.294 252.78H179.746L178.078 256.392L176.866 256.488V252.78H175.522V261Z" fill="#5B5B5B"/>
<path d="M103.503 261.132C105.399 261.132 106.491 260.136 106.491 257.124C106.491 254.004 105.423 252.948 103.503 252.948C101.595 252.948 100.503 254.016 100.503 257.124C100.503 260.148 101.607 261.132 103.503 261.132ZM103.515 259.956C102.435 259.956 101.895 259.296 101.895 257.124C101.895 254.796 102.411 254.124 103.503 254.124C104.619 254.124 105.111 254.796 105.111 257.124C105.111 259.284 104.595 259.956 103.515 259.956Z" fill="#5B5B5B"/>
<path d="M229.874 261.132C231.65 261.132 232.718 260.244 232.718 258.492C232.718 256.764 231.794 255.972 230.03 255.972C229.334 255.972 228.314 256.356 228.314 256.344C228.314 254.976 228.926 254.124 230.138 254.124C230.87 254.124 231.806 254.22 232.31 254.292L232.43 253.236C231.878 253.116 230.87 252.948 230.138 252.948C228.17 252.948 226.922 254.088 226.922 257.04C226.922 259.584 227.822 261.132 229.874 261.132ZM229.874 259.956C228.71 259.956 228.314 258.888 228.302 257.496C228.662 257.352 229.358 257.16 229.91 257.16C230.81 257.16 231.338 257.604 231.338 258.492C231.338 259.428 230.81 259.956 229.874 259.956ZM236.505 261.132C238.401 261.132 239.493 260.136 239.493 257.124C239.493 254.004 238.425 252.948 236.505 252.948C234.597 252.948 233.505 254.016 233.505 257.124C233.505 260.148 234.609 261.132 236.505 261.132ZM236.517 259.956C235.437 259.956 234.897 259.296 234.897 257.124C234.897 254.796 235.413 254.124 236.505 254.124C237.621 254.124 238.113 254.796 238.113 257.124C238.113 259.284 237.597 259.956 236.517 259.956ZM243.219 261.132C245.115 261.132 246.207 260.136 246.207 257.124C246.207 254.004 245.139 252.948 243.219 252.948C241.311 252.948 240.219 254.016 240.219 257.124C240.219 260.148 241.323 261.132 243.219 261.132ZM243.231 259.956C242.151 259.956 241.611 259.296 241.611 257.124C241.611 254.796 242.127 254.124 243.219 254.124C244.335 254.124 244.827 254.796 244.827 257.124C244.827 259.284 244.311 259.956 243.231 259.956ZM247.522 261H248.866V257.664L250.09 257.568L251.806 261H253.378L251.266 256.908L253.294 252.78H251.746L250.078 256.392L248.866 256.488V252.78H247.522V261Z" fill="#5B5B5B"/>
<path d="M302.404 261.132C304.396 261.132 305.632 260.136 305.632 257.028C305.632 254.508 304.72 252.948 302.668 252.948C300.928 252.948 299.836 253.944 299.836 255.588C299.836 257.28 300.808 258.072 302.5 258.072C303.124 258.072 304.096 257.712 304.24 257.664C304.24 259.164 303.64 259.956 302.404 259.956C301.672 259.956 300.736 259.86 300.232 259.788L300.112 260.844C300.664 260.964 301.672 261.132 302.404 261.132ZM302.608 256.896C301.72 256.896 301.216 256.476 301.216 255.588C301.216 254.676 301.756 254.124 302.668 254.124C303.832 254.124 304.24 255.18 304.252 256.548C303.868 256.692 303.136 256.896 302.608 256.896ZM309.503 261.132C311.399 261.132 312.491 260.136 312.491 257.124C312.491 254.004 311.423 252.948 309.503 252.948C307.595 252.948 306.503 254.016 306.503 257.124C306.503 260.148 307.607 261.132 309.503 261.132ZM309.515 259.956C308.435 259.956 307.895 259.296 307.895 257.124C307.895 254.796 308.411 254.124 309.503 254.124C310.619 254.124 311.111 254.796 311.111 257.124C311.111 259.284 310.595 259.956 309.515 259.956ZM316.217 261.132C318.113 261.132 319.205 260.136 319.205 257.124C319.205 254.004 318.137 252.948 316.217 252.948C314.309 252.948 313.217 254.016 313.217 257.124C313.217 260.148 314.321 261.132 316.217 261.132ZM316.229 259.956C315.149 259.956 314.609 259.296 314.609 257.124C314.609 254.796 315.125 254.124 316.217 254.124C317.333 254.124 317.825 254.796 317.825 257.124C317.825 259.284 317.309 259.956 316.229 259.956ZM320.364 261H321.672V258.552L322.464 258.468L323.916 261H325.392L323.58 257.808L325.308 255H323.832L322.428 257.34L321.672 257.412V252.504H320.364V261Z" fill="#5B5B5B"/>
<path d="M373.768 261H375.124V253.08H373.876L371.308 254.796L371.92 255.804L373.768 254.592V261ZM377.699 261H379.115V259.272H377.699V261ZM380.642 261H385.742V259.824H382.166L383.858 258.204C385.082 257.052 385.586 256.356 385.586 255.156C385.586 253.668 384.782 252.948 383.03 252.948C382.178 252.948 381.194 253.14 380.69 253.296L380.774 254.352C381.254 254.268 382.106 254.148 382.718 254.148C383.738 254.148 384.194 254.424 384.194 255.336C384.194 256.164 383.606 256.8 382.586 257.844L380.642 259.86V261ZM387.501 261H388.845V254.268H389.025L390.957 260.664H392.349L394.293 254.268H394.473V261H395.817V252.78H393.477L391.653 259.188L389.829 252.78H387.501V261Z" fill="#5B5B5B"/>
<path d="M453.768 261H455.124V253.08H453.876L451.308 254.796L451.92 255.804L453.768 254.592V261ZM457.699 261H459.115V259.272H457.699V261ZM463.234 261.132C464.938 261.132 465.922 260.148 465.922 258.348C465.922 256.656 464.962 255.972 463.378 255.972C462.802 255.972 462.13 256.188 461.77 256.344L461.986 254.268H465.646V253.08H460.906L460.69 257.292L461.53 257.472C461.854 257.34 462.538 257.16 463.198 257.16C464.05 257.16 464.53 257.508 464.53 258.48C464.53 259.428 463.99 259.944 463.078 259.944C462.346 259.944 461.266 259.812 460.654 259.704L460.51 260.724C461.146 260.904 462.346 261.132 463.234 261.132ZM467.501 261H468.845V254.268H469.025L470.957 260.664H472.349L474.293 254.268H474.473V261H475.817V252.78H473.477L471.653 259.188L469.829 252.78H467.501V261Z" fill="#5B5B5B"/>
<path d="M531.056 261H536.156V259.824H532.58L534.272 258.204C535.496 257.052 536 256.356 536 255.156C536 253.668 535.196 252.948 533.444 252.948C532.592 252.948 531.608 253.14 531.104 253.296L531.188 254.352C531.668 254.268 532.52 254.148 533.132 254.148C534.152 254.148 534.608 254.424 534.608 255.336C534.608 256.164 534.02 256.8 533 257.844L531.056 259.86V261ZM537.699 261H539.115V259.272H537.699V261ZM543.234 261.132C544.938 261.132 545.922 260.148 545.922 258.348C545.922 256.656 544.962 255.972 543.378 255.972C542.802 255.972 542.13 256.188 541.77 256.344L541.986 254.268H545.646V253.08H540.906L540.69 257.292L541.53 257.472C541.854 257.34 542.538 257.16 543.198 257.16C544.05 257.16 544.53 257.508 544.53 258.48C544.53 259.428 543.99 259.944 543.078 259.944C542.346 259.944 541.266 259.812 540.654 259.704L540.51 260.724C541.146 260.904 542.346 261.132 543.234 261.132ZM547.501 261H548.845V254.268H549.025L550.957 260.664H552.349L554.293 254.268H554.473V261H555.817V252.78H553.477L551.653 259.188L549.829 252.78H547.501V261Z" fill="#5B5B5B"/>
<path d="M610.846 261H612.202V253.08H610.954L608.386 254.796L608.998 255.804L610.846 254.592V261ZM617.405 261.132C619.301 261.132 620.393 260.136 620.393 257.124C620.393 254.004 619.325 252.948 617.405 252.948C615.497 252.948 614.405 254.016 614.405 257.124C614.405 260.148 615.509 261.132 617.405 261.132ZM617.417 259.956C616.337 259.956 615.797 259.296 615.797 257.124C615.797 254.796 616.313 254.124 617.405 254.124C618.521 254.124 619.013 254.796 619.013 257.124C619.013 259.284 618.497 259.956 617.417 259.956ZM624.12 261.132C626.016 261.132 627.108 260.136 627.108 257.124C627.108 254.004 626.04 252.948 624.12 252.948C622.212 252.948 621.12 254.016 621.12 257.124C621.12 260.148 622.224 261.132 624.12 261.132ZM624.132 259.956C623.052 259.956 622.512 259.296 622.512 257.124C622.512 254.796 623.028 254.124 624.12 254.124C625.236 254.124 625.728 254.796 625.728 257.124C625.728 259.284 625.212 259.956 624.132 259.956ZM628.423 261H629.767V254.268H629.947L631.879 260.664H633.271L635.215 254.268H635.395V261H636.739V252.78H634.399L632.575 259.188L630.751 252.78H628.423V261Z" fill="#5B5B5B"/>
<path d="M2.704 33H4.16V25.395H6.669V24.095H0.169V25.395H2.704V33ZM9.07715 33.143C9.92215 33.143 11.0791 32.974 11.7161 32.844L11.6901 31.778C11.1051 31.83 10.0391 31.895 9.28515 31.895C8.20615 31.895 7.81615 31.388 7.81615 30.348H11.8331L11.9241 29.334C11.9241 27.306 11.0141 26.357 9.19415 26.357C7.40015 26.357 6.37315 27.436 6.37315 29.815C6.37315 32.103 7.12715 33.143 9.07715 33.143ZM7.80315 29.256C7.81615 28.021 8.23215 27.527 9.19415 27.527C10.1431 27.527 10.5201 27.969 10.5201 29.256H7.80315ZM15.6917 33.143C16.1857 33.143 17.1087 33.013 17.6677 32.909L17.6287 31.765C17.1867 31.804 16.4717 31.869 16.1077 31.869C14.7037 31.869 14.4437 31.323 14.4437 29.659C14.4437 28.177 14.7427 27.631 16.0947 27.631C16.4587 27.631 17.1737 27.696 17.6157 27.735L17.6677 26.604C17.1217 26.5 16.2247 26.357 15.7177 26.357C13.7807 26.357 13.0007 27.332 13.0007 29.659C13.0007 32.155 13.6897 33.143 15.6917 33.143ZM19.0377 33H20.4547V27.917C20.7797 27.787 21.3907 27.631 21.9107 27.631C22.9117 27.631 23.0677 28.268 23.0677 29.555V33H24.4847V29.516C24.4847 27.384 24.0427 26.357 22.2357 26.357C21.6377 26.357 20.8707 26.63 20.4547 26.838V23.796H19.0377V33Z" fill="#5B5B5B"/>
<path d="M4.264 78.143C7.046 78.143 7.878 76.622 7.878 73.593C7.878 70.603 7.046 68.952 4.264 68.952C1.482 68.952 0.637 70.616 0.637 73.593C0.637 76.596 1.469 78.143 4.264 78.143ZM4.264 76.869C2.535 76.869 2.145 75.816 2.145 73.593C2.145 71.383 2.548 70.226 4.264 70.226C5.967 70.226 6.37 71.396 6.37 73.593C6.37 75.842 5.98 76.869 4.264 76.869ZM9.38925 80.795H10.8063V78.026C11.0793 78.065 11.6123 78.143 12.0543 78.143C14.0433 78.143 14.9533 77.363 14.9533 74.685C14.9533 72.319 14.1603 71.357 12.4703 71.357C11.9113 71.357 11.1833 71.669 10.8063 71.903V71.5H9.38925V80.795ZM11.9503 76.908C11.5863 76.908 11.0663 76.856 10.8063 76.804V72.995C11.1313 72.826 11.7293 72.631 12.2233 72.631C13.0163 72.631 13.5103 73.177 13.5103 74.685C13.5103 76.271 13.1593 76.908 11.9503 76.908ZM18.7637 78.143C19.6087 78.143 20.7657 77.974 21.4027 77.844L21.3767 76.778C20.7917 76.83 19.7257 76.895 18.9717 76.895C17.8927 76.895 17.5027 76.388 17.5027 75.348H21.5197L21.6107 74.334C21.6107 72.306 20.7007 71.357 18.8807 71.357C17.0867 71.357 16.0597 72.436 16.0597 74.815C16.0597 77.103 16.8137 78.143 18.7637 78.143ZM17.4897 74.256C17.5027 73.021 17.9187 72.527 18.8807 72.527C19.8297 72.527 20.2067 72.969 20.2067 74.256H17.4897ZM22.9732 78H24.3902V73.463C24.8322 73.268 25.7292 72.943 26.5872 72.787V71.357C25.7942 71.513 24.8582 71.968 24.3902 72.267V71.5H22.9732V78ZM29.1915 78.143C29.9585 78.143 30.8295 77.87 31.2845 77.662C31.4925 77.831 31.7135 77.948 31.9605 78.013C32.2465 78.117 32.5715 78.143 33.0135 78.143L33.0525 77.064C32.6755 76.999 32.5195 76.856 32.4805 76.466V73.502C32.4805 72.02 31.8305 71.357 30.2445 71.357C29.3735 71.357 28.2425 71.552 27.6315 71.695L27.6835 72.709C28.3595 72.657 29.4905 72.579 30.1275 72.579C30.7645 72.579 31.0635 72.8 31.0635 73.502V73.97L29.3995 74.113C28.0085 74.23 27.2545 74.698 27.2545 76.076C27.2545 77.428 27.9045 78.143 29.1915 78.143ZM29.4775 76.986C28.9185 76.986 28.6845 76.609 28.6845 76.037C28.6845 75.452 28.9835 75.179 29.5685 75.114L31.0635 74.984V76.687C30.6865 76.817 29.9975 76.986 29.4775 76.986ZM36.4824 78.143C36.8204 78.143 37.4314 78.052 37.8084 77.974L37.7434 76.83C37.4314 76.856 36.9374 76.882 36.6774 76.882C36.0014 76.882 35.9754 76.544 35.9754 75.569V72.709H37.7564V71.5H35.9754V69.615H34.5584V71.5H33.7264V72.709H34.5584V75.725C34.5584 77.597 35.0134 78.143 36.4824 78.143ZM38.9185 70.408H40.3355V68.9H38.9185V70.408ZM38.9185 78H40.3355V71.5H38.9185V78ZM44.654 78.143C46.89 78.143 47.553 76.869 47.553 74.711C47.553 72.605 46.838 71.357 44.654 71.357C42.483 71.357 41.755 72.605 41.755 74.711C41.755 76.869 42.431 78.143 44.654 78.143ZM44.654 76.934C43.458 76.934 43.198 76.219 43.198 74.711C43.198 73.216 43.523 72.566 44.654 72.566C45.798 72.566 46.11 73.216 46.11 74.711C46.11 76.219 45.863 76.934 44.654 76.934ZM48.9605 78H50.3775V72.969C50.6895 72.813 51.3005 72.631 51.8465 72.631C52.8345 72.631 52.9905 73.268 52.9905 74.555V78H54.4075V74.516C54.4075 72.384 53.9655 71.357 52.1585 71.357C51.5475 71.357 50.7805 71.669 50.3775 71.903V71.5H48.9605V78ZM58.2152 78.143C59.8272 78.143 60.8022 77.597 60.8022 76.076C60.8022 74.776 60.2302 74.386 58.6702 74.113C57.4092 73.892 57.1362 73.775 57.1362 73.346C57.1362 72.826 57.4742 72.631 58.2542 72.631C58.8262 72.631 59.9182 72.748 60.5812 72.839L60.6072 71.656C59.9572 71.526 58.8522 71.37 58.1502 71.37C56.8632 71.37 55.7192 71.916 55.7192 73.385C55.7192 74.763 56.4472 75.075 57.8772 75.309C59.1642 75.517 59.3852 75.66 59.3852 76.115C59.3852 76.674 59.0212 76.869 58.0852 76.869C57.6042 76.869 56.5382 76.752 55.8622 76.661L55.8102 77.857C56.4602 77.987 57.5522 78.143 58.2152 78.143Z" fill="#5B5B5B"/>
<path d="M3.549 122.143C5.304 122.143 6.526 121.298 6.526 119.348C6.526 117.827 5.85 117.333 3.991 116.813C2.47 116.384 2.002 116.202 2.002 115.383C2.002 114.616 2.548 114.213 3.64 114.213C4.186 114.213 5.434 114.343 6.214 114.434L6.331 113.251C5.616 113.121 4.329 112.939 3.51 112.939C1.729 112.939 0.546 113.693 0.546 115.487C0.546 117.021 1.365 117.606 3.302 118.1C4.667 118.438 5.07 118.698 5.07 119.439C5.07 120.362 4.55 120.856 3.458 120.856C2.782 120.856 1.547 120.726 0.78 120.635L0.637 121.792C1.391 121.935 2.704 122.143 3.549 122.143ZM9.43759 122.143C10.2046 122.143 11.0756 121.87 11.5306 121.662C11.7386 121.831 11.9596 121.948 12.2066 122.013C12.4926 122.117 12.8176 122.143 13.2596 122.143L13.2986 121.064C12.9216 120.999 12.7656 120.856 12.7266 120.466V117.502C12.7266 116.02 12.0766 115.357 10.4906 115.357C9.61959 115.357 8.48859 115.552 7.87759 115.695L7.92959 116.709C8.60559 116.657 9.73659 116.579 10.3736 116.579C11.0106 116.579 11.3096 116.8 11.3096 117.502V117.97L9.64559 118.113C8.25459 118.23 7.50059 118.698 7.50059 120.076C7.50059 121.428 8.15059 122.143 9.43759 122.143ZM9.72359 120.986C9.16459 120.986 8.93059 120.609 8.93059 120.037C8.93059 119.452 9.22959 119.179 9.81459 119.114L11.3096 118.984V120.687C10.9326 120.817 10.2436 120.986 9.72359 120.986ZM14.5055 122H15.9225V116.969C16.2345 116.813 16.8455 116.631 17.3915 116.631C18.3795 116.631 18.5355 117.268 18.5355 118.555V122H19.9525V118.516C19.9525 116.384 19.5105 115.357 17.7035 115.357C17.0925 115.357 16.3255 115.669 15.9225 115.903V115.5H14.5055V122ZM21.6021 114.408H23.0191V112.9H21.6021V114.408ZM21.6021 122H23.0191V115.5H21.6021V122ZM26.9736 122.143C27.3116 122.143 27.9226 122.052 28.2996 121.974L28.2346 120.83C27.9226 120.856 27.4286 120.882 27.1686 120.882C26.4926 120.882 26.4666 120.544 26.4666 119.569V116.709H28.2476V115.5H26.4666V113.615H25.0496V115.5H24.2176V116.709H25.0496V119.725C25.0496 121.597 25.5046 122.143 26.9736 122.143ZM30.9308 122.143C31.6978 122.143 32.5688 121.87 33.0238 121.662C33.2318 121.831 33.4528 121.948 33.6998 122.013C33.9858 122.117 34.3108 122.143 34.7528 122.143L34.7918 121.064C34.4148 120.999 34.2588 120.856 34.2198 120.466V117.502C34.2198 116.02 33.5698 115.357 31.9838 115.357C31.1128 115.357 29.9818 115.552 29.3708 115.695L29.4228 116.709C30.0988 116.657 31.2298 116.579 31.8668 116.579C32.5038 116.579 32.8028 116.8 32.8028 117.502V117.97L31.1388 118.113C29.7478 118.23 28.9938 118.698 28.9938 120.076C28.9938 121.428 29.6438 122.143 30.9308 122.143ZM31.2168 120.986C30.6578 120.986 30.4238 120.609 30.4238 120.037C30.4238 119.452 30.7228 119.179 31.3078 119.114L32.8028 118.984V120.687C32.4258 120.817 31.7368 120.986 31.2168 120.986ZM38.2216 122.143C38.5596 122.143 39.1706 122.052 39.5476 121.974L39.4826 120.83C39.1706 120.856 38.6766 120.882 38.4166 120.882C37.7406 120.882 37.7146 120.544 37.7146 119.569V116.709H39.4956V115.5H37.7146V113.615H36.2976V115.5H35.4656V116.709H36.2976V119.725C36.2976 121.597 36.7526 122.143 38.2216 122.143ZM40.6578 114.408H42.0748V112.9H40.6578V114.408ZM40.6578 122H42.0748V115.5H40.6578V122ZM46.3932 122.143C48.6292 122.143 49.2922 120.869 49.2922 118.711C49.2922 116.605 48.5772 115.357 46.3932 115.357C44.2222 115.357 43.4942 116.605 43.4942 118.711C43.4942 120.869 44.1702 122.143 46.3932 122.143ZM46.3932 120.934C45.1972 120.934 44.9372 120.219 44.9372 118.711C44.9372 117.216 45.2622 116.566 46.3932 116.566C47.5372 116.566 47.8492 117.216 47.8492 118.711C47.8492 120.219 47.6022 120.934 46.3932 120.934ZM50.6998 122H52.1168V116.969C52.4288 116.813 53.0398 116.631 53.5858 116.631C54.5738 116.631 54.7298 117.268 54.7298 118.555V122H56.1468V118.516C56.1468 116.384 55.7048 115.357 53.8978 115.357C53.2868 115.357 52.5198 115.669 52.1168 115.903V115.5H50.6998V122ZM59.9545 122.143C61.5665 122.143 62.5415 121.597 62.5415 120.076C62.5415 118.776 61.9695 118.386 60.4095 118.113C59.1485 117.892 58.8755 117.775 58.8755 117.346C58.8755 116.826 59.2135 116.631 59.9935 116.631C60.5655 116.631 61.6575 116.748 62.3205 116.839L62.3465 115.656C61.6965 115.526 60.5915 115.37 59.8895 115.37C58.6025 115.37 57.4585 115.916 57.4585 117.385C57.4585 118.763 58.1865 119.075 59.6165 119.309C60.9035 119.517 61.1245 119.66 61.1245 120.115C61.1245 120.674 60.7605 120.869 59.8245 120.869C59.3435 120.869 58.2775 120.752 57.6015 120.661L57.5495 121.857C58.1995 121.987 59.2915 122.143 59.9545 122.143Z" fill="#5B5B5B"/>
<path d="M4.264 166.143C7.046 166.143 7.878 164.622 7.878 161.593C7.878 158.603 7.046 156.952 4.264 156.952C1.482 156.952 0.637 158.616 0.637 161.593C0.637 164.596 1.469 166.143 4.264 166.143ZM4.264 164.869C2.535 164.869 2.145 163.816 2.145 161.593C2.145 159.383 2.548 158.226 4.264 158.226C5.967 158.226 6.37 159.396 6.37 161.593C6.37 163.842 5.98 164.869 4.264 164.869ZM9.68825 166H11.1053V160.709H12.8083V159.5H11.1053V159.097C11.1053 158.213 11.2873 157.927 11.8722 157.927C12.1583 157.927 12.6393 157.94 12.9123 157.953L12.9383 156.796C12.5093 156.731 11.8463 156.653 11.5213 156.653C10.1693 156.653 9.68825 157.212 9.68825 159.084V159.5H8.93425V160.709H9.68825V166ZM14.1824 166H15.5994V160.709H17.3024V159.5H15.5994V159.097C15.5994 158.213 15.7814 157.927 16.3664 157.927C16.6524 157.927 17.1334 157.94 17.4064 157.953L17.4324 156.796C17.0034 156.731 16.3404 156.653 16.0154 156.653C14.6634 156.653 14.1824 157.212 14.1824 159.084V159.5H13.4284V160.709H14.1824V166ZM18.3775 158.408H19.7945V156.9H18.3775V158.408ZM18.3775 166H19.7945V159.5H18.3775V166ZM23.931 166.143C24.425 166.143 25.348 166.013 25.907 165.909L25.868 164.765C25.426 164.804 24.711 164.869 24.347 164.869C22.943 164.869 22.683 164.323 22.683 162.659C22.683 161.177 22.982 160.631 24.334 160.631C24.698 160.631 25.413 160.696 25.855 160.735L25.907 159.604C25.361 159.5 24.464 159.357 23.957 159.357C22.02 159.357 21.24 160.332 21.24 162.659C21.24 165.155 21.929 166.143 23.931 166.143ZM29.6055 166.143C30.4505 166.143 31.6075 165.974 32.2445 165.844L32.2185 164.778C31.6335 164.83 30.5675 164.895 29.8135 164.895C28.7345 164.895 28.3445 164.388 28.3445 163.348H32.3615L32.4525 162.334C32.4525 160.306 31.5425 159.357 29.7225 159.357C27.9285 159.357 26.9015 160.436 26.9015 162.815C26.9015 165.103 27.6555 166.143 29.6055 166.143ZM28.3315 162.256C28.3445 161.021 28.7605 160.527 29.7225 160.527C30.6715 160.527 31.0485 160.969 31.0485 162.256H28.3315ZM39.3625 166.143C41.1175 166.143 42.3395 165.298 42.3395 163.348C42.3395 161.827 41.6635 161.333 39.8045 160.813C38.2835 160.384 37.8155 160.202 37.8155 159.383C37.8155 158.616 38.3615 158.213 39.4535 158.213C39.9995 158.213 41.2475 158.343 42.0275 158.434L42.1445 157.251C41.4295 157.121 40.1425 156.939 39.3235 156.939C37.5425 156.939 36.3595 157.693 36.3595 159.487C36.3595 161.021 37.1785 161.606 39.1155 162.1C40.4805 162.438 40.8835 162.698 40.8835 163.439C40.8835 164.362 40.3635 164.856 39.2715 164.856C38.5955 164.856 37.3605 164.726 36.5935 164.635L36.4505 165.792C37.2045 165.935 38.5175 166.143 39.3625 166.143ZM45.7711 166.143C46.5121 166.143 47.0321 165.935 47.6691 165.597V166H49.0731V159.5H47.6561V164.531C47.3571 164.687 46.7721 164.869 46.1741 164.869C45.1861 164.869 45.0821 164.323 45.0821 162.906V159.5H43.6651V162.893C43.6651 165.051 44.0551 166.143 45.7711 166.143ZM50.8014 168.795H52.2184V166.026C52.4914 166.065 53.0244 166.143 53.4664 166.143C55.4554 166.143 56.3654 165.363 56.3654 162.685C56.3654 160.319 55.5724 159.357 53.8824 159.357C53.3234 159.357 52.5954 159.669 52.2184 159.903V159.5H50.8014V168.795ZM53.3624 164.908C52.9984 164.908 52.4784 164.856 52.2184 164.804V160.995C52.5434 160.826 53.1414 160.631 53.6354 160.631C54.4284 160.631 54.9224 161.177 54.9224 162.685C54.9224 164.271 54.5714 164.908 53.3624 164.908ZM57.7838 168.795H59.2008V166.026C59.4738 166.065 60.0068 166.143 60.4488 166.143C62.4378 166.143 63.3478 165.363 63.3478 162.685C63.3478 160.319 62.5548 159.357 60.8648 159.357C60.3058 159.357 59.5778 159.669 59.2008 159.903V159.5H57.7838V168.795ZM60.3448 164.908C59.9808 164.908 59.4608 164.856 59.2008 164.804V160.995C59.5258 160.826 60.1238 160.631 60.6178 160.631C61.4108 160.631 61.9048 161.177 61.9048 162.685C61.9048 164.271 61.5538 164.908 60.3448 164.908ZM64.8442 166H66.2612V156.796H64.8442V166ZM68.067 158.408H69.484V156.9H68.067V158.408ZM68.067 166H69.484V159.5H68.067V166ZM73.6074 166.143C74.4524 166.143 75.6094 165.974 76.2464 165.844L76.2204 164.778C75.6354 164.83 74.5694 164.895 73.8154 164.895C72.7364 164.895 72.3464 164.388 72.3464 163.348H76.3634L76.4544 162.334C76.4544 160.306 75.5444 159.357 73.7244 159.357C71.9304 159.357 70.9034 160.436 70.9034 162.815C70.9034 165.103 71.6574 166.143 73.6074 166.143ZM72.3334 162.256C72.3464 161.021 72.7624 160.527 73.7244 160.527C74.6734 160.527 75.0504 160.969 75.0504 162.256H72.3334ZM79.975 166.143C81.587 166.143 82.562 165.597 82.562 164.076C82.562 162.776 81.99 162.386 80.43 162.113C79.169 161.892 78.896 161.775 78.896 161.346C78.896 160.826 79.234 160.631 80.014 160.631C80.586 160.631 81.678 160.748 82.341 160.839L82.367 159.656C81.717 159.526 80.612 159.37 79.91 159.37C78.623 159.37 77.479 159.916 77.479 161.385C77.479 162.763 78.207 163.075 79.637 163.309C80.924 163.517 81.145 163.66 81.145 164.115C81.145 164.674 80.781 164.869 79.845 164.869C79.364 164.869 78.298 164.752 77.622 164.661L77.57 165.857C78.22 165.987 79.312 166.143 79.975 166.143Z" fill="#5B5B5B"/>
<path d="M1.027 211H2.483V203.707H2.678L4.771 210.636H6.279L8.385 203.707H8.58V211H10.036V202.095H7.501L5.525 209.037L3.549 202.095H1.027V211ZM13.4239 211.143C14.1909 211.143 15.0619 210.87 15.5169 210.662C15.7249 210.831 15.9459 210.948 16.1929 211.013C16.4789 211.117 16.8039 211.143 17.2459 211.143L17.2849 210.064C16.9079 209.999 16.7519 209.856 16.7129 209.466V206.502C16.7129 205.02 16.0629 204.357 14.4769 204.357C13.6059 204.357 12.4749 204.552 11.8639 204.695L11.9159 205.709C12.5919 205.657 13.7229 205.579 14.3599 205.579C14.9969 205.579 15.2959 205.8 15.2959 206.502V206.97L13.6319 207.113C12.2409 207.23 11.4869 207.698 11.4869 209.076C11.4869 210.428 12.1369 211.143 13.4239 211.143ZM13.7099 209.986C13.1509 209.986 12.9169 209.609 12.9169 209.037C12.9169 208.452 13.2159 208.179 13.8009 208.114L15.2959 207.984V209.687C14.9189 209.817 14.2299 209.986 13.7099 209.986ZM18.4918 211H19.9088V206.463C20.3508 206.268 21.2478 205.943 22.1058 205.787V204.357C21.3128 204.513 20.3768 204.968 19.9088 205.267V204.5H18.4918V211ZM23.1891 211H24.6061V208.348L25.4641 208.257L27.0371 211H28.6361L26.6731 207.542L28.5451 204.5H26.9461L25.4251 207.035L24.6061 207.113V201.796H23.1891V211ZM31.9414 211.143C32.7864 211.143 33.9434 210.974 34.5804 210.844L34.5544 209.778C33.9694 209.83 32.9034 209.895 32.1494 209.895C31.0704 209.895 30.6804 209.388 30.6804 208.348H34.6974L34.7884 207.334C34.7884 205.306 33.8784 204.357 32.0584 204.357C30.2644 204.357 29.2374 205.436 29.2374 207.815C29.2374 210.103 29.9914 211.143 31.9414 211.143ZM30.6674 207.256C30.6804 206.021 31.0964 205.527 32.0584 205.527C33.0074 205.527 33.3844 205.969 33.3844 207.256H30.6674ZM38.3613 211.143C38.6993 211.143 39.3103 211.052 39.6873 210.974L39.6223 209.83C39.3103 209.856 38.8163 209.882 38.5563 209.882C37.8803 209.882 37.8543 209.544 37.8543 208.569V205.709H39.6353V204.5H37.8543V202.615H36.4373V204.5H35.6053V205.709H36.4373V208.725C36.4373 210.597 36.8923 211.143 38.3613 211.143ZM40.7975 203.408H42.2145V201.9H40.7975V203.408ZM40.7975 211H42.2145V204.5H40.7975V211ZM43.9459 211H45.3629V205.969C45.6749 205.813 46.2859 205.631 46.8319 205.631C47.8199 205.631 47.9759 206.268 47.9759 207.555V211H49.3929V207.516C49.3929 205.384 48.9509 204.357 47.1439 204.357C46.5329 204.357 45.7659 204.669 45.3629 204.903V204.5H43.9459V211ZM53.7206 214.016C55.4626 214.016 56.7236 213.418 56.7236 211.884C56.7236 210.389 56.0866 209.96 54.0326 209.947C52.7716 209.934 52.6416 209.856 52.6416 209.44C52.6416 209.323 52.7326 209.024 52.8106 208.829C52.9406 208.855 53.2526 208.881 53.3826 208.881C55.1246 208.881 56.0346 208.4 56.0346 206.632C56.0346 206.125 55.8526 205.787 55.6836 205.579L56.7756 205.631V204.487L54.7476 204.539C54.4356 204.461 53.8506 204.37 53.4216 204.37C51.9266 204.37 50.8216 204.994 50.8216 206.632C50.8216 207.802 51.2636 208.296 51.7576 208.582C51.5496 208.907 51.2766 209.401 51.2766 209.622C51.2766 210.025 51.4456 210.389 51.7186 210.571C51.0556 211.078 50.7306 211.481 50.7306 212.144C50.7306 213.626 51.7576 214.016 53.7206 214.016ZM53.4216 207.789C52.5896 207.789 52.2386 207.425 52.2386 206.632C52.2386 205.852 52.5896 205.488 53.4216 205.488C54.2926 205.488 54.6306 205.852 54.6306 206.632C54.6306 207.425 54.2926 207.789 53.4216 207.789ZM53.7336 212.846C52.5636 212.846 52.1346 212.599 52.1346 212.014C52.1346 211.611 52.2906 211.39 52.6416 211.091C53.0186 211.13 53.6166 211.169 53.9156 211.169C54.9686 211.182 55.2936 211.26 55.2936 211.962C55.2936 212.586 54.7736 212.846 53.7336 212.846Z" fill="#5B5B5B"/>
<path d="M418.828 33H423.892V32.184H419.932L422.032 30.048C423.148 28.968 423.688 28.272 423.688 27.084C423.688 25.596 422.848 24.96 421.18 24.96C420.34 24.96 419.38 25.152 418.888 25.284L418.96 26.052C419.464 25.944 420.364 25.788 421 25.788C422.152 25.788 422.728 26.136 422.728 27.18C422.728 28.116 422.128 28.764 421.132 29.784L418.828 32.208V33ZM425.519 33H426.503V31.62H425.519V33ZM431.06 33H431.984V25.08H431.108L428.6 26.76L429.02 27.468L431.06 26.112V33ZM435.051 33H435.975V25.692H436.143L438.555 32.7H439.587L441.999 25.692H442.167V33H443.091V24.696H441.411L439.071 31.716L436.731 24.696H435.051V33Z" fill="black"/>
<path d="M169 1L169 242" stroke="#EBEBEB" stroke-linecap="round" stroke-linejoin="round" stroke-dasharray="6 5"/>
<path d="M241 1L241 242" stroke="#EBEBEB" stroke-linecap="round" stroke-linejoin="round" stroke-dasharray="6 5"/>
<path d="M310 1L310 242" stroke="#EBEBEB" stroke-linecap="round" stroke-linejoin="round" stroke-dasharray="6 5"/>
<path d="M382 1L382 242" stroke="#EBEBEB" stroke-linecap="round" stroke-linejoin="round" stroke-dasharray="6 5"/>
<path d="M464 1L464 242" stroke="#EBEBEB" stroke-linecap="round" stroke-linejoin="round" stroke-dasharray="6 5"/>
<path d="M544 1L544 242" stroke="#EBEBEB" stroke-linecap="round" stroke-linejoin="round" stroke-dasharray="6 5"/>
<path d="M623 1L623 242" stroke="#EBEBEB" stroke-linecap="round" stroke-linejoin="round" stroke-dasharray="6 5"/>
<rect x="104" y="111" width="128" height="14" fill="#F6EEFF"/>
<path d="M104 22H401C404.866 22 408 25.134 408 29C408 32.866 404.866 36 401 36H104V22Z" fill="#F6EEFF"/>
<path d="M104 67H547C550.866 67 554 70.134 554 74C554 77.866 550.866 81 547 81H104V67Z" fill="#F6EEFF"/>
<path d="M104 155H468C471.866 155 475 158.134 475 162C475 165.866 471.866 169 468 169H104V155Z" fill="#6418C3"/>
<g filter="url(#filter0_d_2082_6186)">
<rect x="488" y="119" width="124" height="81" rx="12" fill="white"/>
</g>
<circle cx="504" cy="173" r="9" fill="#64FF61" fill-opacity="0.1"/>
<path d="M507.943 170.855C507.885 170.715 507.771 170.599 507.632 170.541C507.566 170.517 507.492 170.5 507.419 170.5H505.896C505.577 170.5 505.323 170.756 505.323 171.079C505.323 171.401 505.577 171.657 505.896 171.657H506.044L504.316 173.401L503.481 172.145C503.383 172.004 503.236 171.905 503.064 171.888C502.884 171.872 502.728 171.93 502.605 172.054L500.166 174.517C499.945 174.74 499.945 175.103 500.166 175.335C500.28 175.45 500.42 175.5 500.567 175.5C500.714 175.5 500.862 175.442 500.968 175.335L502.916 173.368L503.751 174.624C503.85 174.764 503.997 174.864 504.169 174.88C504.349 174.897 504.505 174.839 504.627 174.715L506.854 172.467V172.616C506.854 172.938 507.108 173.194 507.427 173.194C507.746 173.194 508 172.938 508 172.616V171.07C507.984 170.996 507.975 170.921 507.943 170.855Z" fill="#2BB596"/>
<path d="M502.64 151.13C502.137 151.13 501.691 151.061 501.301 150.922C500.911 150.783 500.577 150.549 500.3 150.22C500.031 149.891 499.828 149.449 499.689 148.894C499.55 148.339 499.481 147.65 499.481 146.827C499.481 145.96 499.546 145.232 499.676 144.643C499.815 144.054 500.018 143.586 500.287 143.239C500.564 142.892 500.898 142.645 501.288 142.498C501.678 142.351 502.124 142.277 502.627 142.277C503.147 142.277 503.602 142.351 503.992 142.498C504.382 142.645 504.707 142.892 504.967 143.239C505.236 143.586 505.439 144.054 505.578 144.643C505.717 145.224 505.786 145.952 505.786 146.827C505.786 147.919 505.66 148.777 505.409 149.401C505.158 150.025 504.798 150.471 504.33 150.74C503.871 151 503.307 151.13 502.64 151.13ZM502.64 150.129C502.961 150.129 503.242 150.081 503.485 149.986C503.736 149.882 503.944 149.709 504.109 149.466C504.274 149.215 504.395 148.877 504.473 148.452C504.56 148.019 504.603 147.477 504.603 146.827C504.603 146.125 504.564 145.549 504.486 145.098C504.408 144.639 504.287 144.275 504.122 144.006C503.966 143.737 503.762 143.551 503.511 143.447C503.268 143.334 502.978 143.278 502.64 143.278C502.302 143.278 502.007 143.334 501.756 143.447C501.513 143.551 501.31 143.737 501.145 144.006C500.98 144.266 500.855 144.626 500.768 145.085C500.69 145.544 500.651 146.129 500.651 146.84C500.651 147.49 500.694 148.032 500.781 148.465C500.868 148.89 500.998 149.223 501.171 149.466C501.344 149.709 501.552 149.882 501.795 149.986C502.038 150.081 502.319 150.129 502.64 150.129ZM510.24 151V143.681L508.082 145.098L507.588 144.24L510.331 142.42H511.384V151H510.24ZM514.368 147.945V146.931H518.307V147.945H514.368ZM523.113 151V143.681L520.955 145.098L520.461 144.24L523.204 142.42H524.257V151H523.113ZM530.062 151.117C529.742 151.117 529.399 151.095 529.035 151.052C528.68 151.009 528.338 150.961 528.008 150.909C527.679 150.848 527.406 150.792 527.189 150.74L527.306 149.83C527.523 149.865 527.783 149.908 528.086 149.96C528.398 150.003 528.715 150.042 529.035 150.077C529.365 150.103 529.668 150.116 529.945 150.116C530.517 150.116 530.968 149.956 531.297 149.635C531.627 149.314 531.791 148.846 531.791 148.231C531.791 147.815 531.718 147.49 531.57 147.256C531.432 147.013 531.232 146.844 530.972 146.749C530.721 146.645 530.422 146.593 530.075 146.593C529.824 146.593 529.568 146.619 529.308 146.671C529.057 146.723 528.827 146.788 528.619 146.866C528.411 146.935 528.238 147.009 528.099 147.087L527.332 146.944L527.566 142.42H532.623V143.447H528.489L528.268 146.073C528.416 146.004 528.593 145.934 528.801 145.865C529.018 145.787 529.248 145.722 529.49 145.67C529.733 145.609 529.976 145.579 530.218 145.579C530.782 145.579 531.267 145.666 531.674 145.839C532.082 146.004 532.398 146.272 532.623 146.645C532.849 147.018 532.961 147.512 532.961 148.127C532.961 148.794 532.844 149.349 532.61 149.791C532.385 150.233 532.056 150.567 531.622 150.792C531.189 151.009 530.669 151.117 530.062 151.117ZM537.568 151V142.03H539.596L541.975 149.349L544.38 142.03H546.408V151H545.264V143.304H545.069L542.599 150.688H541.377L538.907 143.304H538.712V151H537.568ZM549.824 151.13C549.209 151.13 548.741 150.961 548.42 150.623C548.108 150.285 547.952 149.787 547.952 149.128C547.952 148.695 548.026 148.344 548.173 148.075C548.329 147.806 548.559 147.603 548.862 147.464C549.174 147.325 549.551 147.239 549.993 147.204L551.943 147.009V146.476C551.943 146.051 551.848 145.752 551.657 145.579C551.466 145.406 551.189 145.319 550.825 145.319C550.6 145.319 550.335 145.328 550.032 145.345C549.737 145.362 549.438 145.384 549.135 145.41C548.84 145.436 548.58 145.462 548.355 145.488L548.303 144.656C548.511 144.613 548.762 144.569 549.057 144.526C549.36 144.483 549.672 144.448 549.993 144.422C550.322 144.387 550.621 144.37 550.89 144.37C551.393 144.37 551.804 144.444 552.125 144.591C552.446 144.738 552.68 144.968 552.827 145.28C552.983 145.583 553.061 145.978 553.061 146.463V149.713C553.078 149.895 553.152 150.029 553.282 150.116C553.412 150.194 553.577 150.246 553.776 150.272L553.737 151.13C553.546 151.13 553.369 151.117 553.204 151.091C553.039 151.074 552.892 151.048 552.762 151.013C552.632 150.97 552.515 150.918 552.411 150.857C552.307 150.788 552.207 150.71 552.112 150.623C551.947 150.692 551.739 150.766 551.488 150.844C551.237 150.922 550.968 150.987 550.682 151.039C550.396 151.1 550.11 151.13 549.824 151.13ZM550.019 150.22C550.244 150.22 550.478 150.203 550.721 150.168C550.964 150.125 551.193 150.073 551.41 150.012C551.627 149.951 551.804 149.895 551.943 149.843V147.815L550.136 147.984C549.763 148.019 549.495 148.131 549.33 148.322C549.165 148.504 549.083 148.764 549.083 149.102C549.083 149.449 549.161 149.722 549.317 149.921C549.482 150.12 549.716 150.22 550.019 150.22ZM556.309 153.86L557.154 151H556.127L554.333 144.5H555.451L556.985 150.051H557.414L558.948 144.5H560.066L557.44 153.86H556.309Z" fill="black"/>
<path d="M515.756 176.76H516.596V174.396H518.888V173.58H516.596V171.24H515.756V173.58H513.488V174.396H515.756V176.76ZM522.891 177.12C524.679 177.12 525.459 176.328 525.459 174.732C525.459 173.448 524.895 173.1 524.091 172.812C524.331 172.668 525.267 172.248 525.267 171.012C525.267 169.608 524.607 168.948 522.735 168.948C521.859 168.948 520.899 169.14 520.407 169.284L520.491 170.016C520.971 169.92 521.907 169.776 522.687 169.776C523.863 169.776 524.307 170.148 524.307 171.048C524.307 171.96 523.479 172.488 522.867 172.488H521.271V173.28H522.879C523.779 173.316 524.499 173.676 524.499 174.768C524.499 175.788 523.959 176.292 522.783 176.292C521.967 176.292 520.923 176.148 520.371 176.04L520.287 176.796C520.875 176.94 521.967 177.12 522.891 177.12ZM529.221 177.12C531.177 177.12 532.365 176.136 532.365 173.064C532.365 170.544 531.489 168.96 529.497 168.96C527.829 168.96 526.749 169.968 526.749 171.588C526.749 173.256 527.685 174 529.341 174C530.037 174 531.045 173.676 531.405 173.544C531.381 175.416 530.673 176.292 529.221 176.292C528.489 176.292 527.601 176.208 527.133 176.148L527.049 176.904C527.553 177 528.489 177.12 529.221 177.12ZM529.413 173.184C528.309 173.184 527.709 172.704 527.709 171.588C527.709 170.472 528.381 169.788 529.497 169.788C530.889 169.788 531.381 171.024 531.417 172.752C530.913 172.932 530.025 173.184 529.413 173.184ZM535.408 177.216L537.88 169.02L537.292 168.828L534.832 177.048L535.408 177.216ZM534.628 172.308C535.432 172.308 535.948 171.78 535.948 170.616C535.948 169.464 535.444 168.96 534.628 168.96C533.812 168.96 533.308 169.464 533.308 170.616C533.308 171.78 533.824 172.308 534.628 172.308ZM534.628 171.696C534.196 171.696 534.04 171.324 534.04 170.616C534.04 169.908 534.196 169.572 534.628 169.572C535.072 169.572 535.228 169.908 535.228 170.616C535.228 171.324 535.072 171.696 534.628 171.696ZM538.036 177.12C538.84 177.12 539.356 176.58 539.356 175.428C539.356 174.276 538.852 173.772 538.036 173.772C537.22 173.772 536.728 174.276 536.728 175.416C536.728 176.58 537.232 177.12 538.036 177.12ZM538.036 176.508C537.604 176.508 537.448 176.124 537.448 175.416C537.448 174.72 537.604 174.384 538.036 174.384C538.48 174.384 538.636 174.72 538.636 175.428C538.636 176.136 538.48 176.508 538.036 176.508ZM543.26 177H544.16V168.384H543.26V177ZM547.273 177.12C548.065 177.12 548.965 176.844 549.433 176.64C549.589 176.808 549.781 176.916 549.985 176.988C550.237 177.084 550.513 177.12 550.861 177.12L550.897 176.4C550.513 176.364 550.225 176.232 550.201 175.872V172.812C550.201 171.504 549.625 170.88 548.269 170.88C547.513 170.88 546.481 171.036 545.917 171.144L545.953 171.828C546.565 171.768 547.609 171.672 548.221 171.672C548.929 171.672 549.301 171.972 549.301 172.812V173.328L547.417 173.508C546.181 173.616 545.581 174.132 545.581 175.284C545.581 176.496 546.181 177.12 547.273 177.12ZM547.417 176.364C546.805 176.364 546.505 175.956 546.505 175.26C546.505 174.6 546.793 174.252 547.525 174.18L549.301 174.012V175.992C548.869 176.16 548.065 176.364 547.417 176.364ZM553.849 177.12C555.289 177.12 556.177 176.652 556.177 175.248C556.177 174.084 555.613 173.784 554.113 173.532C552.841 173.316 552.565 173.16 552.565 172.608C552.565 171.888 553.117 171.696 553.861 171.696C554.425 171.696 555.385 171.804 555.961 171.888L555.985 171.108C555.433 171.012 554.473 170.88 553.813 170.88C552.721 170.88 551.653 171.312 551.653 172.632C551.653 173.832 552.301 174.096 553.657 174.312C554.953 174.504 555.265 174.66 555.265 175.284C555.265 176.088 554.749 176.316 553.765 176.316C553.321 176.316 552.373 176.196 551.785 176.112L551.737 176.892C552.313 176.988 553.285 177.12 553.849 177.12ZM559.523 177.132C559.835 177.132 560.399 177.048 560.747 177L560.687 176.256C560.375 176.28 559.859 176.316 559.619 176.316C558.839 176.316 558.755 175.956 558.755 174.648V171.78H560.663V171H558.755V169.164H557.855V171H557.015V171.78H557.855V174.936C557.855 176.664 558.287 177.132 559.523 177.132ZM564.399 177H565.299V172.128C565.623 171.936 566.283 171.684 566.907 171.684C567.999 171.684 568.167 172.26 568.167 173.904V177H569.067V173.88C569.067 173.208 569.031 172.56 568.923 172.128C569.259 171.936 569.955 171.684 570.603 171.684C571.683 171.684 571.863 172.272 571.863 173.856V177H572.763V173.832C572.763 171.66 572.367 170.88 570.735 170.88C569.955 170.88 569.067 171.228 568.611 171.492C568.287 171.06 567.843 170.88 567.039 170.88C566.415 170.88 565.683 171.192 565.299 171.42V171H564.399V177ZM576.734 177.12C578.762 177.12 579.302 176.112 579.302 173.928C579.302 171.864 578.642 170.88 576.734 170.88C574.838 170.88 574.166 171.864 574.166 173.928C574.166 176.112 574.718 177.12 576.734 177.12ZM576.734 176.34C575.318 176.34 575.09 175.632 575.09 173.928C575.09 172.26 575.462 171.66 576.734 171.66C578.006 171.66 578.378 172.26 578.378 173.928C578.378 175.632 578.15 176.34 576.734 176.34ZM580.77 177H581.67V172.128C582.03 171.936 582.738 171.684 583.362 171.684C584.478 171.684 584.646 172.272 584.646 173.856V177H585.546V173.832C585.546 171.696 585.174 170.88 583.53 170.88C582.87 170.88 582.078 171.192 581.67 171.42V171H580.77V177ZM589.16 177.132C589.472 177.132 590.036 177.048 590.384 177L590.324 176.256C590.012 176.28 589.496 176.316 589.256 176.316C588.476 176.316 588.392 175.956 588.392 174.648V171.78H590.3V171H588.392V169.164H587.492V171H586.652V171.78H587.492V174.936C587.492 176.664 587.924 177.132 589.16 177.132ZM591.399 177H592.299V172.056C592.659 171.9 593.367 171.684 593.991 171.684C595.095 171.684 595.275 172.272 595.275 173.856V177H596.175V173.832C596.175 171.696 595.803 170.88 594.147 170.88C593.499 170.88 592.719 171.132 592.299 171.336V168.384H591.399V177Z" fill="#2BB596"/>
<path d="M104 200H354C357.866 200 361 203.134 361 207C361 210.866 357.866 214 354 214H104V200Z" fill="#F6EEFF"/>
<path d="M367.744 211H368.668V203.08H367.792L365.284 204.76L365.704 205.468L367.744 204.112V211ZM371.735 211H372.659V203.692H372.827L375.239 210.7H376.271L378.683 203.692H378.851V211H379.775V202.696H378.095L375.755 209.716L373.415 202.696H371.735V211Z" fill="black"/>
<defs>
<filter id="filter0_d_2082_6186" x="476" y="111" width="148" height="105" filterUnits="userSpaceOnUse" color-interpolation-filters="sRGB">
<feFlood flood-opacity="0" result="BackgroundImageFix"/>
<feColorMatrix in="SourceAlpha" type="matrix" values="0 0 0 0 0 0 0 0 0 0 0 0 0 0 0 0 0 0 127 0" result="hardAlpha"/>
<feOffset dy="4"/>
<feGaussianBlur stdDeviation="6"/>
<feComposite in2="hardAlpha" operator="out"/>
<feColorMatrix type="matrix" values="0 0 0 0 0.429167 0 0 0 0 0.429167 0 0 0 0 0.429167 0 0 0 0.15 0"/>
<feBlend mode="normal" in2="BackgroundImageFix" result="effect1_dropShadow_2082_6186"/>
<feBlend mode="normal" in="SourceGraphic" in2="effect1_dropShadow_2082_6186" result="shape"/>
</filter>
</defs>
</svg>
