<svg width="15" height="15" viewBox="0 0 15 15" fill="none" xmlns="http://www.w3.org/2000/svg">
<path d="M8.207 6.79312C8.5975 7.18362 8.5975 7.81662 8.207 8.20712C7.8165 8.59762 7.1835 8.59762 6.793 8.20712C6.521 7.93512 5.271 5.99812 4.539 4.84962C4.409 4.64612 4.646 4.40912 4.8495 4.53912C5.998 5.27112 7.935 6.52062 8.207 6.79312Z" fill="#A8A8A8"/>
<path d="M3.29 3.965C2.4855 4.9205 2 6.153 2 7.5C2 10.5375 4.4625 13 7.5 13C10.5375 13 13 10.5375 13 7.5C13 4.4625 10.5375 2 7.5 2V4" stroke="#A8A8A8" stroke-width="2" stroke-miterlimit="10" stroke-linecap="round"/>
</svg>
