<svg width="7" height="7" viewBox="0 0 7 7" fill="none" xmlns="http://www.w3.org/2000/svg">
<path d="M2.32031 6.31965C1.86152 6.31709 1.41367 6.17933 1.03275 5.9236C0.651839 5.66787 0.354767 5.30552 0.178686 4.88186C0.00260524 4.4582 -0.0446702 3.99203 0.0427715 3.54164C0.130213 3.09125 0.348491 2.67664 0.670311 2.34965L2.55364 0.486314C2.86605 0.17488 3.28919 0 3.73031 0C4.17143 0 4.59457 0.17488 4.90698 0.486314C5.2174 0.798584 5.39163 1.221 5.39163 1.66131C5.39163 2.10162 5.2174 2.52404 4.90698 2.83631L3.02364 4.71298C2.83628 4.89923 2.58283 5.00377 2.31864 5.00377C2.05446 5.00377 1.80101 4.89923 1.61364 4.71298C1.51956 4.61902 1.44516 4.50725 1.39479 4.38419C1.34442 4.26114 1.3191 4.12927 1.32031 3.99631C1.31966 3.73166 1.42394 3.47755 1.61031 3.28965L3.49364 1.41298C3.52463 1.38174 3.5615 1.35694 3.60212 1.34002C3.64274 1.32309 3.68631 1.31438 3.73031 1.31438C3.77431 1.31438 3.81788 1.32309 3.8585 1.34002C3.89912 1.35694 3.93599 1.38174 3.96698 1.41298C4.02906 1.47543 4.06391 1.55992 4.06391 1.64798C4.06391 1.73604 4.02906 1.82053 3.96698 1.88298L2.08364 3.75965C2.02156 3.8221 1.98671 3.90658 1.98671 3.99465C1.98671 4.08271 2.02156 4.16719 2.08364 4.22965C2.1461 4.29173 2.23058 4.32658 2.31864 4.32658C2.40671 4.32658 2.49119 4.29173 2.55364 4.22965L4.43698 2.34965C4.62121 2.16257 4.72447 1.91054 4.72447 1.64798C4.72447 1.38542 4.62121 1.13339 4.43698 0.946314C4.24948 0.759046 3.99531 0.65386 3.73031 0.65386C3.46531 0.65386 3.21114 0.759046 3.02364 0.946314L1.14031 2.81965C0.834933 3.1312 0.663882 3.55006 0.663882 3.98631C0.663882 4.42257 0.834933 4.84143 1.14031 5.15298C1.45272 5.46441 1.87585 5.63929 2.31698 5.63929C2.7581 5.63929 3.18123 5.46441 3.49364 5.15298L6.08364 2.57298C6.11463 2.54174 6.1515 2.51694 6.19212 2.50002C6.23274 2.48309 6.27631 2.47438 6.32031 2.47438C6.36431 2.47438 6.40788 2.48309 6.4485 2.50002C6.48912 2.51694 6.52599 2.54174 6.55698 2.57298C6.61906 2.63543 6.65391 2.71992 6.65391 2.80798C6.65391 2.89604 6.61906 2.98053 6.55698 3.04298L3.96698 5.62631C3.75151 5.84439 3.49518 6.01787 3.21263 6.13683C2.93009 6.2558 2.62687 6.31792 2.32031 6.31965Z" fill="#464646"/>
</svg>
