<svg width="14" height="4" viewBox="0 0 14 4" fill="none" xmlns="http://www.w3.org/2000/svg">
<path d="M1.66667 0C0.75 0 0 0.75 0 1.66667C0 2.58333 0.75 3.33333 1.66667 3.33333C2.58333 3.33333 3.33333 2.58333 3.33333 1.66667C3.33333 0.75 2.58333 0 1.66667 0ZM11.6667 0C10.75 0 10 0.75 10 1.66667C10 2.58333 10.75 3.33333 11.6667 3.33333C12.5833 3.33333 13.3333 2.58333 13.3333 1.66667C13.3333 0.75 12.5833 0 11.6667 0ZM6.66667 0C5.75 0 5 0.75 5 1.66667C5 2.58333 5.75 3.33333 6.66667 3.33333C7.58333 3.33333 8.33333 2.58333 8.33333 1.66667C8.33333 0.75 7.58333 0 6.66667 0Z" fill="#9E9E9E"/>
</svg>
