<svg width="8" height="8" viewBox="0 0 8 8" fill="none" xmlns="http://www.w3.org/2000/svg">
<path d="M6 0H2C0.896 0 0 0.892446 0 1.993V4.38619V4.78639C0 5.88694 0.896 6.77939 2 6.77939H2.6C2.708 6.77939 2.852 6.85143 2.92 6.93947L3.52 7.73587C3.784 8.08804 4.216 8.08804 4.48 7.73587L5.08 6.93947C5.156 6.83942 5.276 6.77939 5.4 6.77939H6C7.104 6.77939 8 5.88694 8 4.78639V1.993C8 0.892446 7.104 0 6 0ZM4.4 4.70235H2C1.836 4.70235 1.7 4.56628 1.7 4.4022C1.7 4.23812 1.836 4.10205 2 4.10205H4.4C4.564 4.10205 4.7 4.23812 4.7 4.4022C4.7 4.56628 4.564 4.70235 4.4 4.70235ZM6 2.70135H2C1.836 2.70135 1.7 2.56528 1.7 2.4012C1.7 2.23712 1.836 2.10105 2 2.10105H6C6.164 2.10105 6.3 2.23712 6.3 2.4012C6.3 2.56528 6.164 2.70135 6 2.70135Z" fill="#727272"/>
</svg>
